<?xml version="1.0" encoding="UTF-8"?>
<svg width="1600" height="1131" viewBox="0 0 1600 1131" xmlns="http://www.w3.org/2000/svg">
  <defs>
    <!-- fundo muito claro, quase branco -->
    <linearGradient id="bg" x1="0" y1="0" x2="1" y2="1">
      <stop offset="0%" stop-color="#f9fafb"/>
      <stop offset="100%" stop-color="#f3f4f6"/>
    </linearGradient>
  </defs>

  <!-- base -->
  <rect x="0" y="0" width="1600" height="1131" fill="url(#bg)" />

  <!-- grupo de ondas verticais bem suaves -->
  <g stroke="#e3e6ec" stroke-width="1" fill="none" opacity="0.45">
    <!-- repete curvas a cada ~80px -->
    <!-- você pode duplicar / mexer em x para deixar mais denso depois -->
    <path d="M 40 -100 
             C 20 150, 60 350, 40 550
             C 20 750, 60 950, 40 1200" />
    <path d="M 120 -100 
             C 100 130, 140 330, 120 530
             C 100 730, 140 930, 120 1200" />
    <path d="M 200 -100 
             C 180 170, 220 370, 200 570
             C 180 770, 220 970, 200 1200" />
    <path d="M 280 -100 
             C 260 130, 300 330, 280 530
             C 260 730, 300 930, 280 1200" />
    <path d="M 360 -100 
             C 340 170, 380 370, 360 570
             C 340 770, 380 970, 360 1200" />
    <path d="M 440 -100 
             C 420 130, 460 330, 440 530
             C 420 730, 460 930, 440 1200" />
    <path d="M 520 -100 
             C 500 170, 540 370, 520 570
             C 500 770, 540 970, 520 1200" />
    <path d="M 600 -100 
             C 580 130, 620 330, 600 530
             C 580 730, 620 930, 600 1200" />
    <path d="M 680 -100 
             C 660 170, 700 370, 680 570
             C 660 770, 700 970, 680 1200" />
    <path d="M 760 -100 
             C 740 130, 780 330, 760 530
             C 740 730, 780 930, 760 1200" />
    <path d="M 840 -100 
             C 820 170, 860 370, 840 570
             C 820 770, 860 970, 840 1200" />
    <path d="M 920 -100 
             C 900 130, 940 330, 920 530
             C 900 730, 940 930, 920 1200" />
    <path d="M 1000 -100 
             C 980 170, 1020 370, 1000 570
             C 980 770, 1020 970, 1000 1200" />
    <path d="M 1080 -100 
             C 1060 130, 1100 330, 1080 530
             C 1060 730, 1100 930, 1080 1200" />
    <path d="M 1160 -100 
             C 1140 170, 1180 370, 1160 570
             C 1140 770, 1180 970, 1160 1200" />
    <path d="M 1240 -100 
             C 1220 130, 1260 330, 1240 530
             C 1220 730, 1260 930, 1240 1200" />
    <path d="M 1320 -100 
             C 1300 170, 1340 370, 1320 570
             C 1300 770, 1340 970, 1320 1200" />
    <path d="M 1400 -100 
             C 1380 130, 1420 330, 1400 530
             C 1380 730, 1420 930, 1400 1200" />
    <path d="M 1480 -100 
             C 1460 170, 1500 370, 1480 570
             C 1460 770, 1500 970, 1480 1200" />
  </g>
</svg>
